<svg width="800" height="414" viewBox="0 0 800 414" fill="none" xmlns="http://www.w3.org/2000/svg">
<path d="M428.667 26.2668C419.333 28.6668 378.8 41.7335 371.733 44.8002C358.8 50.2668 329.333 65.2002 322.933 69.6002L317.333 73.4668L305.6 67.3335C299.2 64.0002 285.067 56.8002 274 51.3335C242.133 35.7335 233.6 33.2002 230.667 38.5335C228.933 42.0002 231.733 44.0002 234 40.8002C235.6 38.8002 236.667 38.9335 247.467 43.4668C258.4 48.0002 275.6 56.4002 304 71.3335C310.267 74.6668 316.133 77.3335 317.067 77.3335C318 77.3335 322.533 74.9335 327.2 72.0002C341.6 62.9335 375.867 47.2002 392.667 42.0002C401.467 39.2002 412.933 35.6002 418.267 33.8668C423.467 32.1335 428.667 30.6668 429.6 30.6668C430.667 30.6668 432.933 32.6668 434.667 34.9335C436.4 37.3335 443.067 45.6002 449.467 53.3335C455.867 61.0668 465.067 73.3335 469.867 80.6668L478.8 94.0002L475.067 94.8002C473.067 95.3335 469.067 95.7335 466.267 95.8668C462.8 96.0002 461.333 96.5335 461.733 97.6002C462.267 99.4668 468.8 99.8668 475.733 98.2668C479.6 97.4668 480.133 97.7335 479.467 99.7335C479.2 100.933 478.4 116.667 478 134.667C477.2 164.933 476.8 168 473.733 176.933C471.867 182.267 469.733 186.667 469.067 186.667C466 186.667 437.333 201.733 437.333 203.467C437.333 204.533 437.6 205.333 438 205.333C438.4 205.333 445.467 202 453.733 198C461.867 194 469.333 190.667 470.4 190.667C471.333 190.667 473.467 189.867 475.067 188.8C480.133 185.6 505.067 177.6 527.067 172.133L548.267 166.933L547.333 170.267C545.067 179.333 545.067 181.467 547.2 184.667C548.667 186.933 550.533 188 552.267 187.733C556 187.2 557.067 184 553.6 184C550 184 549.067 180.8 550.667 174.8C552.933 166.8 555.2 165.067 560.4 167.333C563.467 168.667 566 166.267 564.8 163.333C564.267 161.6 562.8 161.2 560 161.6C557.733 162 556 162 556 161.733C556 160.667 568.933 141.333 573.067 136.267C578.4 129.733 582.133 127.333 584.4 128.933C586.8 130.533 591.067 130.267 591.733 128.267C592 127.467 591.6 126.667 590.8 126.667C586.533 126.667 594.267 92.0002 601.6 78.5335C617.867 47.8668 654.933 32.6668 671.067 50.1335C678.667 58.2668 680.667 73.3335 676.133 87.7335C670.933 104.533 648.8 132.267 639.333 134.133C634 135.067 632.667 136.4 635.067 138.4C637.467 140.4 646.533 136.133 653.733 129.333C660.8 122.933 671.2 108.133 677.333 96.0002C687.733 75.4668 682.667 49.4668 666.4 41.2002C661.733 38.8002 659.2 38.4002 650.8 38.9335C636.933 39.7335 625.6 45.3335 612.667 57.4668C598.133 71.3335 591.733 84.9335 587.2 111.067C585.867 118.8 584.4 124.933 583.733 124.533C582 123.467 575.2 127.733 570.667 132.933C568.267 135.6 562.667 143.333 558.267 150C554 156.533 550.267 162.267 550 162.533C549.733 162.667 541.867 164.667 532.4 166.667C514.8 170.667 495.2 176.4 482.933 181.2C479.067 182.8 475.6 184 475.333 184C475.067 184 476.267 180.4 478.133 176C481.067 168.533 481.333 165.867 482 138.4C482.8 98.9335 483.2 96.9335 488.133 95.0668C492.4 93.4668 492.933 90.6668 490.133 85.4668C489.2 83.7335 488.667 81.2002 489.067 79.7335C489.467 78.0002 488.933 77.3335 486.8 77.3335C483.467 77.3335 483.2 79.6002 486 86.1335C487.867 90.5335 487.733 90.8002 484.933 91.8668C482.4 92.8002 481.6 92.1335 478.667 86.8002C472.4 75.3335 464.4 64.4002 449.333 46.6668C445.333 41.8668 439.867 35.2002 437.467 31.6002C434.933 28.1335 432.533 25.4668 432.133 25.4668C431.733 25.6002 430.133 26.0002 428.667 26.2668Z" fill="black"/>
<path d="M414 45.4665C404.267 50.5331 402.267 52.1331 403.733 53.5998C404.667 54.5331 407.2 53.7331 411.733 50.9331L418.4 46.9331L419.867 50.1331C421.2 53.3331 423.333 54.2665 424.4 52.2665C425.2 51.0665 421.6 42.6665 420.267 42.6665C419.733 42.6665 416.933 43.8665 414 45.4665Z" fill="black"/>
<path d="M610 46.7997C609.467 47.5997 609.333 48.3997 609.733 48.7997C610 49.1997 610.667 48.5331 611.067 47.3331C612 45.0664 611.2 44.6664 610 46.7997Z" fill="black"/>
<path d="M235.467 49.0667C234.933 50.1333 240.4 97.4667 242 104.667C243.6 111.867 245.6 116 247.467 116C249.733 116 249.867 114.133 248 110.533C247.2 109.067 245.067 97.0667 243.333 83.6C241.467 70.2667 239.733 56.8 239.333 53.6C238.533 48.4 237.067 46.5333 235.467 49.0667Z" fill="black"/>
<path d="M254.133 63.3334C251.867 65.6 251.467 68.1334 252.8 73.0667C254.133 78 256.667 75.6 256.133 69.8667C255.733 64.6667 255.733 64.6667 258.533 67.2C261.467 69.8667 269.733 70.9334 270.4 68.6667C270.667 68 269.067 66.9334 267.067 66.5334C264.933 66.1334 261.733 64.8 259.733 63.4667C256.533 61.4667 256.133 61.3334 254.133 63.3334Z" fill="black"/>
<path d="M409.333 67.8667C409.333 69.8667 412.8 72 417.467 72.8C436.267 76.4 454.267 96.1333 453.867 112.8C453.6 122.4 452.133 124.4 442 127.867C428.4 132.667 414 130 402.8 120.533C390.667 110.4 392.133 92.9333 406.133 80C409.6 76.8 411.733 73.8667 411.067 73.2C409.067 71.2 402.133 76.6667 396.667 84.6667C391.6 92 391.333 92.8 391.333 102.667C391.333 112.133 391.733 113.6 395.333 118.8C398.133 122.667 402.133 125.867 408.533 129.2C417.067 133.6 418.533 134 429.2 134C448.667 133.867 457.2 128 458.4 114.267C459.067 105.867 456.133 98.6667 448.133 88C440.667 78 434.667 73.8667 422.267 70C410.8 66.4 409.333 66.1333 409.333 67.8667Z" fill="black"/>
<path d="M250 83.9998C249.467 84.7998 249.733 86.2664 250.533 87.0664C251.333 87.8664 252 92.5331 252 97.5998C252 105.733 252.267 106.8 255.333 108.8C258.133 110.666 260.8 110.933 268.8 110.266C274.667 109.866 280.267 110.133 282 110.933C284.8 112.133 284.933 112.933 284.267 121.333C283.733 130.266 283.733 130.666 287.867 134.8L292.133 138.933L309.733 138.4C329.733 137.6 340.933 134.8 351.467 127.6C363.2 119.866 363.467 114.266 353.2 98.7998C347.733 90.5331 341.2 86.2664 338.4 89.0664C337.333 90.1331 337.867 90.9331 340.4 91.8664C345.6 93.8664 357.333 111.066 356.533 115.6C356.4 116.533 356.267 117.866 356.133 118.533C355.867 120.666 343.467 127.866 335.2 130.8C329.467 132.8 322.667 133.733 310.533 134.266C294.667 134.933 293.6 134.933 290.8 132.133C285.6 126.933 288.533 107.466 296.133 98.2664C302 91.0664 307.2 89.3331 326.8 87.9998C336.533 87.3331 344.667 86.3998 345.067 85.9998C347.467 83.5998 341.467 83.0664 325.733 83.9998C310.267 85.0664 307.2 85.5998 301.467 88.7998C294.533 92.5331 288.8 99.3331 287.333 105.466C286.533 108.8 286.267 108.933 282.933 107.333C280.667 106 276.933 105.733 271.2 106.266C266.667 106.666 261.467 106.666 259.467 106.133C256.267 105.333 256.133 104.933 256.267 96.5331C256.4 89.4664 255.867 87.3331 253.733 85.0664C251.733 83.1998 250.667 82.7998 250 83.9998Z" fill="black"/>
<path d="M369.564 93.9634C354.769 95.867 350.06 98.1364 357.941 99.5083C363.113 100.409 390.021 95.9799 390.334 94.181C390.726 91.9324 385.151 91.8886 369.564 93.9634Z" fill="black"/>
<path d="M154 93.2C148.133 95.2 141.467 97.8667 139.067 99.0667C132.933 102.267 125.6 109.6 124.533 113.733C123.6 117.6 128.8 136.133 138.667 164C141.333 171.733 144 179.6 144.533 181.6C145.333 185.333 149.333 186.933 149.333 183.733C149.333 182.8 145.867 171.467 141.467 158.667C137.2 145.867 132.267 130.933 130.667 125.467C127.733 115.733 127.733 115.6 130.267 112.133C136 104.533 155.867 94.6667 165.6 94.6667C172.933 94.6667 181.067 106.8 186.133 125.333C188 132.267 188.533 138.133 188.267 154.667C188.133 166 187.867 177.733 187.6 180.667C187.467 184.533 187.867 186 189.2 186C190.4 186 191.2 184.4 191.333 182C194.267 140.8 193.6 131.467 186.533 113.2C182.133 101.733 173.867 91.4667 168 90.1333C166 89.7333 160.267 91.0667 154 93.2Z" fill="black"/>
<path d="M374 111.6C369.333 112.8 368.667 114.4 371.733 117.733C373.6 119.733 374.4 121.733 373.867 123.2C373.467 124.4 373.733 126.133 374.4 127.067C375.6 128.4 373.467 129.6 364.667 132.533C357.333 134.8 353.333 136.8 353.333 138.133C353.333 140.667 353.6 140.533 366.667 136C381.733 130.8 383.2 130.8 382.133 136.267C381.733 138.667 381.067 143.867 380.533 147.867L379.6 155.067L376.533 151.6C374.8 149.6 372.8 148 372 148C369.333 148 370.8 151.6 375.2 155.867C380.533 161.067 384 160.667 384 155.067C384 153.067 384.667 146.667 385.6 141.067C387.333 129.6 386 125.867 380.933 127.467C378.4 128.267 378.267 127.867 379.2 122.533C379.6 119.333 380.133 115.467 380.4 114C380.667 111.333 378.533 110.533 374 111.6Z" fill="black"/>
<path d="M246 120C245.467 120.8 245.733 122.133 246.4 123.066C247.067 124 249.867 130.666 252.667 137.866C260.533 159.2 266.933 173.066 276 189.2C284 203.466 285.067 204.666 294.4 210.933C304 217.466 308 218.266 308 213.866C308 212.666 307.2 212 306.267 212.4C305.333 212.8 300.933 210.533 296.667 207.466C288.4 201.6 280.667 191.066 271.333 172.133C266.533 162.533 252 126.533 252 124.4C252 122 247.067 118.4 246 120Z" fill="black"/>
<path d="M710.667 128.8C701.467 129.6 660.533 136 649.333 138.267C643.867 139.333 637.6 140.4 635.467 140.533C631.067 140.8 628.933 144 633.2 144C636.267 144 663.733 140 688 136C706.8 132.933 748.667 132.267 757.867 134.8C763.333 136.267 770.667 142.8 770.667 146.133C770.667 153.2 748.667 166.8 728.667 172.133C718.933 174.667 715.867 174.8 693.2 174C679.467 173.467 666.133 172.667 663.467 172C658.667 170.933 655.867 172.4 658.267 174.8C658.8 175.333 672 176.667 687.333 177.467C711.733 178.933 716.667 178.8 725.467 177.067C746.133 172.8 769.467 160 773.2 150.8C776.533 142.933 769.6 133.6 758.267 130.8C751.6 129.2 720.933 127.867 710.667 128.8Z" fill="black"/>
<path d="M776.667 132.133C776.133 132.933 776 133.733 776.4 134.133C776.667 134.533 777.333 133.867 777.733 132.667C778.667 130.4 777.867 130 776.667 132.133Z" fill="black"/>
<path d="M454.667 136.533C455.6 137.467 456.4 137.467 457.333 136.533C458.133 135.733 457.733 135.2 456 135.2C454.267 135.2 453.867 135.733 454.667 136.533Z" fill="black"/>
<path d="M85.6 169.867C57.6 175.2 38.2666 184.8 33.8666 195.6C31.7333 200.667 32.6666 204.133 38 210.533C45.7333 219.6 58.9333 223.867 87.7333 226.667C95.2 227.333 102.533 228.533 104 229.333C107.6 231.333 108.4 235.333 106.667 242.667L105.067 249.2L92.2667 253.333C67.3333 261.467 52 271.6 52 279.733C52 289.867 63.8666 290.267 101.467 281.867C121.867 277.333 137.333 275.467 139.333 277.467C139.733 278 135.867 284.933 130.533 292.8C117.733 312.267 112 324.533 111.067 334.533C110.133 344.933 111.2 349.067 115.2 350.133C122.667 352 134 343.467 145.333 327.6C149.6 321.6 152.533 320.667 149.467 326.267C145.067 334.667 143.6 366.133 147.333 373.333C152 382.267 168.267 383.867 182.667 376.667C192.4 371.867 207.467 360.267 213.6 352.933C229.467 333.733 234.8 309.333 226.8 291.467C225.333 288 223.2 285.333 222.133 285.333C219.467 285.333 219.467 285.733 222.8 292.267C228.667 303.6 227.333 322 219.733 336.4C214.133 346.8 201.867 360 190.933 367.067C178.933 374.933 174.133 376.667 164.267 376.667C156.667 376.667 155.467 376.267 152.533 372.933C149.733 369.6 149.333 367.867 149.333 357.467C149.333 340.933 154.533 316 159.6 308.667C160.533 307.2 161.333 304.8 161.333 303.067C161.333 297.733 158.667 298.4 156.133 304.267C151.2 315.733 130.267 340.667 122.267 344.933C115.6 348.267 114.133 346.533 115.067 336.267C116.133 325.6 120.933 315.2 134.667 294.4C139.733 286.533 144 279.2 144 278.133C144 276.933 142.533 275.067 140.667 273.867C136.267 271.067 126.267 271.867 106.667 276.533C86.9333 281.333 66 284.4 60.5333 283.467C56.9333 282.667 56 282 56 279.333C56 273.867 69.7333 265.733 91.3333 258.133C99.7333 255.2 104.4 254.267 105.2 255.067C108 257.867 112.933 237.333 110.8 231.733C108.533 225.6 104.267 224 84.8 222C74.6667 220.933 64 219.333 60.9333 218.533C47.2 214.8 37.3333 206.933 37.3333 199.6C37.3333 190 60.9333 178.267 88.8 174C107.6 171.2 114.8 173.067 130.4 184.933C137.067 190.133 140.533 192 141.467 191.067C143.333 189.2 129.067 177.6 119.2 172.8C110.267 168.4 98.8 167.467 85.6 169.867Z" fill="black"/>
<path d="M133.733 175.333C133.733 176.4 134.267 176.933 134.933 176.533C135.6 176.133 135.733 175.2 135.333 174.533C134.133 172.8 133.733 173.067 133.733 175.333Z" fill="white"/>
<path d="M471.2 391.5C471.253 391.5 471.388 391.476 471.631 391.38C471.863 391.289 472.151 391.149 472.496 390.96C473.184 390.583 474.06 390.028 475.082 389.327C477.124 387.927 479.717 385.964 482.503 383.727C488.077 379.251 494.393 373.699 498.574 369.386H498.575C504.96 362.801 508.968 357.227 510.681 352.626C511.536 350.331 511.811 348.301 511.545 346.52C511.281 344.745 510.476 343.183 509.113 341.82C508.485 341.192 507.065 340.365 504.994 339.426C502.946 338.497 500.329 337.486 497.372 336.473C491.827 334.572 485.111 332.672 478.762 331.292L477.502 331.023C475.668 330.657 474.229 330.345 473.116 330.045C472.01 329.746 471.185 329.449 470.605 329.093C470.006 328.725 469.632 328.274 469.5 327.68C469.376 327.125 469.481 326.516 469.65 325.873L469.651 325.868C469.676 325.778 469.691 325.515 469.657 325.021C469.624 324.553 469.553 323.938 469.445 323.19C469.228 321.697 468.867 319.703 468.393 317.349C467.445 312.642 466.047 306.518 464.449 300.125C459.256 280.019 457.268 274.589 449.689 259.963V259.962C447.286 255.289 445.082 250.713 443.477 247.12C442.675 245.324 442.021 243.769 441.566 242.566C441.339 241.966 441.158 241.447 441.035 241.027C440.916 240.625 440.834 240.263 440.834 240C440.834 239.329 441.056 238.736 441.517 238.255C441.966 237.786 442.612 237.453 443.409 237.226C444.995 236.773 447.345 236.693 450.474 236.952C456.751 237.472 466.385 239.381 479.853 242.715L479.858 242.716C491.97 245.838 509.235 249.428 519.46 251.07L521.407 251.372L521.414 251.373C531.279 252.973 544.879 255.24 551.551 256.441L551.552 256.44L563.819 258.574L564.175 258.636L564.228 258.994L565.026 264.45C565.751 268.737 568.205 276.868 571.072 285.034C573.937 293.197 577.191 301.331 579.504 305.628L579.505 305.627C580.694 307.805 582.147 310.053 583.55 311.935C584.963 313.83 586.293 315.311 587.229 315.997L587.231 315.998C588.138 316.67 588.794 317.149 589.363 317.468C589.919 317.779 590.361 317.92 590.832 317.934C591.314 317.947 591.874 317.829 592.669 317.542C593.466 317.254 594.456 316.813 595.794 316.211L595.797 316.21C604.869 312.193 609.239 303.511 610.568 286.628L610.835 281.972L611.786 281.788L614.719 288.055L614.721 288.058C618.096 295.403 624.433 304.765 631.537 313.433C638.641 322.101 646.474 330.029 652.822 334.525H652.823C661.954 341.01 673.322 344.967 682.667 344.967H682.674C687.117 345.033 690.28 344.699 693.096 343.68C695.91 342.661 698.422 340.941 701.534 338.16L701.54 338.155C706.47 333.882 709.504 329.106 710.778 323.326C712.054 317.532 711.572 310.685 709.382 302.259L709.381 302.255C706.602 291.137 701.438 280.793 690.517 264.277C680.645 249.469 675.762 243.554 669.992 239.751C668.968 239.102 668.125 238.423 667.495 237.793C666.876 237.174 666.424 236.563 666.245 236.047C666.157 235.793 666.104 235.475 666.236 235.18C666.384 234.849 666.691 234.697 666.993 234.656C667.281 234.617 667.617 234.665 667.979 234.767C668.349 234.87 668.783 235.042 669.284 235.283L669.296 235.289L669.309 235.296C669.858 235.601 670.98 236.022 672.361 236.438C673.729 236.85 675.31 237.246 676.755 237.509C678.27 237.719 681.193 238.459 684.67 239.452C688.178 240.454 692.284 241.723 696.156 242.991L696.157 242.992C706.442 246.398 712.379 248.14 716.405 248.451C718.4 248.605 719.896 248.405 721.206 247.895C722.52 247.382 723.685 246.544 724.999 245.361L725.002 245.359C729.644 241.233 731.142 235.732 729.481 229.071C727.811 222.374 722.942 214.515 714.834 205.808L714.833 205.806C706.989 197.297 699.896 191.337 692.141 187.055C684.389 182.774 675.949 180.154 665.389 178.36C658.159 177.222 654.552 176.668 652.608 176.7C651.647 176.716 651.2 176.877 650.929 177.094C650.647 177.32 650.472 177.667 650.202 178.309C649.742 179.577 650.182 180.836 650.863 181.489C651.202 181.815 651.557 181.95 651.852 181.929C652.126 181.908 652.462 181.743 652.767 181.216L652.773 181.207C653.172 180.55 653.989 180.203 654.932 180.021C655.902 179.835 657.143 179.798 658.569 179.882C661.426 180.049 665.13 180.703 669.137 181.698C677.149 183.689 686.464 187.07 692.786 190.769L692.785 190.77C694.735 191.899 697.493 194.129 700.561 196.918C703.639 199.716 707.056 203.1 710.33 206.557C713.603 210.013 716.737 213.548 719.247 216.647C721.745 219.733 723.659 222.429 724.456 224.194L724.455 224.195C726.271 228.164 727.17 231.643 727.066 234.667C726.968 237.52 725.979 239.946 724.074 241.962L723.681 242.359C722.787 243.318 721.728 244.171 720.751 244.789C720.258 245.1 719.778 245.357 719.343 245.537C718.919 245.713 718.497 245.833 718.133 245.833C717.948 245.833 717.674 245.793 717.358 245.733C717.029 245.672 716.616 245.582 716.131 245.468C715.161 245.239 713.887 244.908 712.401 244.499C709.427 243.68 705.588 242.545 701.583 241.276H701.58C694.221 238.907 682.173 235.714 674.002 233.788L672.421 233.421C668.345 232.552 664.169 231.483 660.709 230.463C657.283 229.453 654.507 228.477 653.243 227.78C651.8 227.059 650.618 226.65 649.723 226.511C648.805 226.368 648.314 226.527 648.086 226.754C647.62 227.22 647.443 227.581 647.431 227.888C647.42 228.186 647.562 228.572 648.076 229.102C648.589 229.63 649.416 230.242 650.635 230.979C651.85 231.712 653.428 232.555 655.423 233.553C669.503 240.593 680.888 253.174 694.811 276.887L696.167 279.217C699.652 285.249 702.732 292.315 704.941 299.01C707.148 305.696 708.5 312.056 708.5 316.667C708.5 319.555 708.299 321.68 707.643 323.751C706.988 325.818 705.891 327.799 704.149 330.411L704.147 330.413L703.57 331.251C700.693 335.344 697.934 338.038 694.511 339.637C690.866 341.339 686.534 341.768 680.638 341.433H680.636C674.048 341.029 668.915 339.816 663.38 337.116C655.693 333.473 646.476 325.617 637.961 316.083C629.436 306.539 621.573 295.266 616.615 284.746L616.613 284.744C614.415 280.016 613.162 277.04 612.548 274.57C611.928 272.072 611.967 270.105 612.304 267.404L612.305 267.397C612.506 265.962 612.644 264.878 612.701 264.055C612.759 263.218 612.726 262.715 612.625 262.405C612.578 262.261 612.52 262.174 612.461 262.115C612.403 262.056 612.319 262.003 612.189 261.959C611.904 261.862 611.477 261.833 610.8 261.833C610.212 261.833 609.781 261.867 609.472 261.938C609.163 262.008 609.034 262.102 608.975 262.177C608.92 262.246 608.865 262.375 608.88 262.656C608.896 262.943 608.981 263.329 609.144 263.851C609.313 264.39 609.432 264.851 609.477 265.223C609.519 265.564 609.519 265.977 609.271 266.282C608.991 266.627 608.566 266.644 608.236 266.595C607.899 266.544 607.493 266.402 607.031 266.205C606.532 266.039 606.205 265.951 605.995 265.932C605.987 265.931 605.98 265.932 605.973 265.932C605.973 265.933 605.973 265.934 605.973 265.936C605.979 266.032 606.003 266.168 606.052 266.357C606.151 266.736 606.333 267.255 606.6 267.955L606.606 267.971C606.999 269.113 607.241 271.214 607.368 273.767C607.496 276.341 607.508 279.438 607.417 282.614C607.245 288.554 606.706 294.83 605.857 298.499L605.683 299.196C604.921 302.039 602.361 306.008 599.65 309.238C598.287 310.862 596.865 312.323 595.581 313.384C594.939 313.914 594.321 314.352 593.753 314.66C593.196 314.963 592.64 315.167 592.133 315.167C591.187 315.167 590.197 314.64 589.21 313.792C588.21 312.934 587.146 311.689 586.042 310.121C583.832 306.983 581.415 302.484 579.008 297.001L579.006 296.995C576.596 291.304 573.59 282.417 571.337 274.825C570.211 271.029 569.27 267.546 568.685 264.94C568.393 263.64 568.187 262.545 568.092 261.735C568.045 261.333 568.024 260.982 568.038 260.703C568.045 260.564 568.061 260.426 568.096 260.3C568.127 260.189 568.187 260.038 568.314 259.915L568.313 259.913C568.317 259.909 568.322 259.905 568.327 259.9C568.329 259.898 568.332 259.895 568.335 259.893V259.894C568.495 259.745 568.698 259.693 568.844 259.671C569.012 259.646 569.201 259.645 569.396 259.659C569.789 259.687 570.282 259.778 570.836 259.914C571.949 260.188 573.372 260.665 574.855 261.271C576.434 261.863 577.791 262.246 578.803 262.389C579.312 262.46 579.707 262.466 579.987 262.421C580.254 262.378 580.348 262.301 580.378 262.264C580.618 261.845 580.64 261.403 580.459 260.932C580.268 260.436 579.846 259.899 579.188 259.374C577.874 258.326 575.73 257.418 573.126 257.027H573.12C571.893 256.828 570.919 256.657 570.164 256.432C569.405 256.205 568.805 255.906 568.374 255.412C567.941 254.916 567.732 254.285 567.624 253.509C567.516 252.738 567.5 251.761 567.5 250.533C567.5 247.651 568.587 243.181 569.811 240.462L569.814 240.455C570.504 238.976 570.902 237.786 571.058 236.914C571.136 236.477 571.15 236.14 571.121 235.896C571.091 235.648 571.022 235.545 570.985 235.509C570.963 235.488 570.918 235.452 570.779 235.467C570.625 235.483 570.391 235.562 570.074 235.752C569.52 236.083 568.805 236.695 567.953 237.636L567.579 238.06C566.411 239.488 565.652 240.764 565.177 242.282C564.699 243.813 564.5 245.623 564.5 248.134C564.5 249.944 564.433 251.592 564.332 252.792C564.281 253.39 564.221 253.889 564.154 254.245C564.121 254.419 564.082 254.582 564.034 254.71C564.011 254.771 563.975 254.854 563.919 254.931C563.873 254.992 563.726 255.167 563.466 255.167C562.804 255.167 561.22 254.971 558.982 254.639C556.724 254.303 553.757 253.82 550.295 253.23C543.371 252.051 534.46 250.442 525.275 248.725C508.06 245.507 489.86 241.905 481.979 240.035L480.544 239.685C470.493 237.155 460.948 235.326 453.724 234.463C450.11 234.031 447.093 233.843 444.891 233.925C443.788 233.966 442.912 234.074 442.275 234.243C441.61 234.42 441.323 234.635 441.229 234.791L441.222 234.801L441.216 234.811L441.073 235.001C440.709 235.432 440.144 235.781 439.54 236.029C438.835 236.318 438.004 236.5 437.2 236.5C436.592 236.5 436.039 236.623 435.657 236.813C435.256 237.014 435.167 237.215 435.167 237.333C435.167 237.538 435.251 237.757 435.394 237.923C435.536 238.087 435.707 238.167 435.867 238.167C436.227 238.167 436.53 238.375 436.752 238.589C436.985 238.815 437.205 239.121 437.402 239.471C437.795 240.168 438.143 241.111 438.352 242.146C438.475 242.638 438.827 243.588 439.377 244.917C439.922 246.235 440.648 247.897 441.505 249.794C443.22 253.588 445.451 258.317 447.783 263.114V263.115C454.599 277.15 457.278 284.65 461.684 302.409C463.218 308.412 464.553 313.916 465.487 317.937C465.954 319.946 466.321 321.588 466.564 322.736C466.685 323.31 466.776 323.765 466.833 324.082C466.861 324.239 466.882 324.371 466.894 324.469C466.9 324.516 466.905 324.567 466.906 324.615C466.906 324.638 466.906 324.676 466.9 324.72C466.897 324.741 466.891 324.778 466.877 324.82C466.864 324.856 466.833 324.941 466.753 325.021L466.722 325.051L466.687 325.076L466.128 325.45C462.142 328.077 439.675 342.555 431.511 347.626L429.993 348.561C427.718 349.966 425.603 351.142 424.016 351.901C423.226 352.28 422.548 352.563 422.042 352.718C421.793 352.794 421.554 352.848 421.349 352.856C421.247 352.86 421.122 352.855 420.998 352.812C420.882 352.773 420.748 352.695 420.656 352.555L420.62 352.49C420.628 352.507 420.603 352.462 420.472 352.334C420.358 352.222 420.195 352.078 419.988 351.905C419.574 351.56 419 351.117 418.303 350.603C416.912 349.575 415.052 348.28 413.056 346.949C409.037 344.27 400.627 337.862 394.481 332.519C391.35 329.921 388.421 327.558 386.195 325.847C385.081 324.99 384.148 324.301 383.456 323.827C383.108 323.59 382.829 323.412 382.622 323.296C382.518 323.238 382.441 323.2 382.388 323.178C382.379 323.174 382.37 323.171 382.364 323.169C382.132 323.173 382.032 323.218 382 323.241C381.99 323.248 381.968 323.26 381.963 323.348C381.958 323.458 381.989 323.643 382.102 323.919C382.212 324.188 382.386 324.512 382.628 324.888C383.603 326.403 385.551 328.577 388.213 331.14C393.524 336.251 401.567 342.8 410.013 348.52C412.292 350.061 414.376 351.64 415.896 352.975C416.655 353.641 417.285 354.254 417.728 354.779C417.949 355.041 418.133 355.292 418.265 355.524C418.391 355.745 418.5 356.003 418.5 356.267C418.5 356.618 418.628 356.992 418.836 357.311C419.02 357.594 419.242 357.796 419.437 357.898C419.446 357.896 419.455 357.895 419.466 357.892C419.56 357.867 419.697 357.819 419.882 357.742C420.251 357.589 420.761 357.344 421.403 357.011C422.683 356.346 424.45 355.35 426.581 354.102C430.84 351.606 436.535 348.11 442.666 344.245V344.244L464.799 330.244L464.99 330.124L465.206 330.187L481.739 334.987C492.329 338.051 498.772 340.128 502.634 342C504.569 342.938 505.898 343.843 506.779 344.827C507.673 345.826 508.086 346.884 508.23 348.073V348.079C508.325 348.953 508.13 349.983 507.725 351.113C507.318 352.251 506.683 353.527 505.858 354.908C504.208 357.67 501.771 360.891 498.776 364.312C493.159 370.729 485.549 377.89 477.401 384.105L475.764 385.335L471.911 388.392L471.571 388.661L471.256 388.363L463.656 381.163L463.653 381.159C459.665 377.304 454.238 373.076 451.767 371.775C449.21 370.43 444.26 367.352 440.656 364.949L440.642 364.939C438.874 363.672 437.523 362.71 436.487 362.018C435.44 361.318 434.755 360.92 434.307 360.751C434.1 360.673 433.991 360.664 433.946 360.666C433.925 360.704 433.889 360.794 433.866 360.981C433.842 361.174 433.834 361.421 433.834 361.733C433.834 362.252 434.069 362.899 434.643 363.697C435.214 364.49 436.088 365.39 437.289 366.401C439.688 368.423 443.326 370.839 448.252 373.701L448.251 373.702C453.091 376.393 459.786 381.613 463.287 385.246C465.008 386.967 466.793 388.553 468.274 389.705C469.015 390.282 469.671 390.743 470.201 391.058C470.466 391.215 470.691 391.331 470.872 391.405C471.062 391.484 471.164 391.5 471.2 391.5Z" fill="black" stroke="black"/>
<path d="M192.4 187.6C189.467 188.667 190.267 192.267 193.2 191.333C194.933 190.8 197.333 191.867 200.667 194.933C209.467 202.533 215.067 214 220.667 235.333C224.533 250.4 224.533 250.667 222.267 247.333C219.333 243.467 217.2 246 219.467 250.533C221.867 255.467 224.8 257.867 226.8 256.667C230.533 254.267 222.533 220.667 215.067 207.2C210.533 199.067 207.467 195.2 201.6 190.267C197.2 186.667 195.6 186.267 192.4 187.6Z" fill="black"/>
<path d="M228 209.334C226.267 210.4 226.267 210.8 228.267 212.8C230 214.534 234.4 215.467 245.6 216.267C272.267 218.4 291.6 221.067 295.867 223.2C299.733 225.334 302.4 224.267 300.667 221.334C298.667 218.134 274.667 214 250.4 212.667C238 211.867 233.333 211.2 232.8 209.867C232 207.734 230.8 207.6 228 209.334Z" fill="black"/>
<path d="M318.533 258.667C300.667 270.4 221.333 346.533 221.333 351.867C221.333 355.6 225.867 351.733 245.2 331.733C274.267 301.733 321.6 258.667 325.733 258.667C326 258.667 325.467 261.467 324.4 264.933C318.267 285.6 315.333 293.867 310.8 304C308 310.267 304 319.6 302 324.933L298.4 334.533L283.6 341.867C275.333 345.867 267.467 349.467 265.867 349.867C264.4 350.4 261.733 352.133 260 354L256.933 357.2L263.733 363.6C267.867 367.6 271.733 372.933 273.867 377.467C277.067 384.933 280.933 387.733 285.6 386C286.533 385.733 294.533 384.533 303.333 383.467C326.933 380.667 352.8 370.8 359.067 362.533C361.2 359.6 361.467 357.733 360.667 352.133C359.467 343.333 356.667 343.733 356.667 352.8C356.667 356.4 356.133 360.133 355.467 361.067C354.133 363.333 340.133 369.733 327.467 374.133C320 376.667 294.667 381.2 283.467 381.867C281.733 382 279.867 379.867 277.2 374.667C275.067 370.667 270.933 364.933 267.867 362.133C261.467 356.133 260.8 356.933 278.133 349.2C284.133 346.533 290.4 343.333 292.267 342.133C295.333 340.133 295.867 340.133 300 342.133C303.733 344.133 324.4 346 346.533 346.533C349.2 346.667 349.467 346.933 348 348.667C346.933 350 346.667 351.2 347.467 352C348.267 352.8 351.333 350.267 355.867 345.333C359.733 340.933 366.4 334.933 370.8 332C378.4 326.667 380.533 324 376.933 324C374.133 324 359.733 334.4 355.2 339.733C352.667 342.667 350.533 344 349.467 343.467C348.533 342.933 337.6 341.867 325.067 341.2C312.533 340.667 302.133 339.867 301.867 339.6C301.2 338.933 308.8 318.267 315.067 304.267C318.533 296.667 323.067 283.867 325.333 275.6C327.6 267.467 330.133 260 330.933 259.067C331.6 258.133 331.867 256.8 331.333 256C329.867 253.6 324.533 254.533 318.533 258.667Z" fill="black"/>
<path d="M267.067 290C267.067 291.067 267.6 291.6 268.267 291.2C268.933 290.8 269.067 289.867 268.667 289.2C267.467 287.467 267.067 287.734 267.067 290Z" fill="black"/>
<path d="M248.933 312.133C249.867 313.067 250.933 313.467 251.333 313.067C251.733 312.667 251.067 311.867 249.733 311.467C247.867 310.667 247.733 310.8 248.933 312.133Z" fill="black"/>
<path d="M426.5 120C402.5 123.5 411.5 113 408.5 91L435.5 95.5C440.5 102.5 445.7 117.2 426.5 120Z" fill="black" stroke="black"/>
<ellipse cx="425" cy="103.5" rx="20" ry="17.5" fill="black"/>
<ellipse cx="320" cy="110.5" rx="21" ry="17.5" fill="black"/>
</svg>
